<?xml version="1.0" standalone="no"?>
<!DOCTYPE svg PUBLIC "-//W3C//DTD SVG 20010904//EN"
 "http://www.w3.org/TR/2001/REC-SVG-20010904/DTD/svg10.dtd">
<svg version="1.0" xmlns="http://www.w3.org/2000/svg"
 width="792.000000pt" height="792.000000pt" viewBox="0 0 792.000000 792.000000"
 preserveAspectRatio="xMidYMid meet">

<g transform="translate(0.000000,792.000000) scale(0.100000,-0.100000)"
fill="#000000" stroke="none">
<path d="M0 3960 l0 -3960 3960 0 3960 0 0 3960 0 3960 -3960 0 -3960 0 0
-3960z m7510 30 l0 -3520 -3555 0 -3555 0 0 3520 0 3520 3555 0 3555 0 0
-3520z"/>
<path d="M3265 4731 c-385 -379 -701 -696 -703 -703 -3 -17 1392 -1383 1413
-1383 17 0 1415 1363 1415 1380 0 14 -1395 1389 -1413 1392 -6 2 -327 -307
-712 -686z"/>
</g>
</svg>
